<?xml version="1.0" encoding="UTF-8" standalone="no"?>
<!-- Created with Inkscape (http://www.inkscape.org/) -->

<svg
   width="44.604305mm"
   height="11.97854mm"
   viewBox="0 0 168.58321 45.273222"
   version="1.1"
   id="svg1"
   inkscape:version="1.3.2 (091e20e, 2023-11-25, custom)"
   sodipodi:docname="UI_light_shadow.svg"
   xmlns:inkscape="http://www.inkscape.org/namespaces/inkscape"
   xmlns:sodipodi="http://sodipodi.sourceforge.net/DTD/sodipodi-0.dtd"
   xmlns="http://www.w3.org/2000/svg"
   xmlns:svg="http://www.w3.org/2000/svg">
  <sodipodi:namedview
     id="namedview1"
     pagecolor="#ffffff"
     bordercolor="#000000"
     borderopacity="0.25"
     inkscape:showpageshadow="2"
     inkscape:pageopacity="0.0"
     inkscape:pagecheckerboard="0"
     inkscape:deskcolor="#d1d1d1"
     inkscape:document-units="mm"
     inkscape:zoom="1.4142136"
     inkscape:cx="281.4285"
     inkscape:cy="235.113"
     inkscape:window-width="1920"
     inkscape:window-height="1009"
     inkscape:window-x="-8"
     inkscape:window-y="-8"
     inkscape:window-maximized="1"
     inkscape:current-layer="layer1" />
  <defs
     id="defs1" />
  <g
     inkscape:label="Capa 1"
     inkscape:groupmode="layer"
     id="layer1"
     transform="translate(-249.71394,-341.71393)">
    <path
       id="text158-2"
       style="font-size:45.3543px;line-height:58.2048px;font-family:FRESHFACE;-inkscape-font-specification:'FRESHFACE, Normal';text-align:center;letter-spacing:0px;word-spacing:0px;text-anchor:middle;fill:#a01744;fill-rule:evenodd;stroke:#001700;stroke-width:1.13386;paint-order:markers stroke fill"
       d="m 282.72454,369.72009 0.0907,9.34299 -21.86077,-0.18142 0.40819,-31.56659 h 21.45258 v 10.06865 h -8.61731 l -0.0907,-3.99117 h -4.94362 l 0.18142,19.50234 h 4.30865 v -3.1748 z m 20.50015,-15.3751 v 6.07747 l -7.98236,0.13606 0.13607,18.50456 h -9.29764 v -24.85416 h 8.79874 v 1.90488 l 1.90488,-1.90488 z m 23.85639,-0.13607 v 14.10519 l -13.56093,0.13606 0.0907,4.80756 h 4.30866 v -3.53764 h 9.07086 l 0.0907,9.34299 -21.86077,-0.18142 0.40819,-24.67274 z m -13.60629,9.38834 4.94362,-0.0907 -0.0453,-3.22015 h -4.94362 z m 39.14077,-16.28219 v 31.74801 l -8.93479,-0.0907 -0.0454,-2.35842 -2.22236,2.44913 -10.65826,-0.18142 0.22677,-24.67274 h 12.29102 v -6.80314 z m -13.47022,25.94266 h 4.12724 V 360.2864 h -4.30866 z m 17.18924,5.80535 v -23.2214 l 8.79873,0.0907 v 23.13069 z m 0,-31.74801 h 8.79873 v 6.39496 h -8.79873 z m 23.08531,25.67053 h 2.99338 v 6.07748 l -11.79211,-0.0907 -0.13607,-15.82865 h -2.90267 v -5.21574 h 2.85732 l -0.0454,-10.61291 9.02551,-0.0907 v 10.79432 l 2.85732,0.0454 v 5.17039 l -2.85732,-0.0454 z m 13.96913,-8.39054 13.60629,0.0453 v 14.15054 l -21.63401,0.18142 v -7.84629 l 8.88945,-0.0454 v 1.72347 h 4.35401 l -0.0907,-3.03874 -12.97133,-0.0454 -0.0453,-15.3751 h 20.72691 v 8.5266 h -8.66267 l -0.0453,-2.44913 h -4.21795 z M 250.28088,342.28085 h 167.44933 v 44.13936 H 250.28088 Z" />
  </g>
</svg>
